<svg height="512pt" viewBox="0 -98 512.00007 512" width="512pt" xmlns="http://www.w3.org/2000/svg"><path d="m511.691406 70.074219c-.511718-38.726563-32.371094-70.074219-71.460937-70.074219-34.921875 0-64.054688 25.027344-70.238281 57.980469-12.277344 5.398437-33.601563 14.03125-46.308594 16.132812-15.320313 2.53125-33.835938 3.292969-55.03125 2.257813-40.484375-1.976563-80.902344-15.078125-116.886719-37.898438-45.28125-28.710937-83.847656-35.429687-125.050781-21.785156-15.980469 5.292969-26.714844 20.234375-26.714844 37.1875 0 5.492188 3.003906 10.546875 7.832031 13.175781 5.519531 3 10.679688 5.59375 15.671875 8.097657 27.042969 13.574218 41.941406 21.050781 51.8125 62.253906 7.375 30.765625 20.277344 56.554687 38.355469 76.644531 7.671875 8.527344 16.296875 16.050781 25.792969 22.527344h205.289062c31.011719-23.144531 49.996094-58.253907 55.214844-102.519531 3.132812-26.574219.5-49.742188-1.335938-61.160157.078126-.613281.128907-1.234375.128907-1.871093 0-22.621094 18.601562-41.023438 41.46875-41.023438 22.863281 0 41.46875 18.402344 41.46875 41.023438 0 .714843.050781 1.429687.152343 2.136718.019532.148438 1.675782 15.023438-7.574218 25.699219-7.582032 8.75-20.976563 13.1875-39.808594 13.1875-8.285156 0-15 6.714844-15 15 0 8.28125 6.714844 15 15 15 27.925781 0 48.949219-7.921875 62.480469-23.546875 16.597656-19.15625 15.378906-42.445312 14.742187-48.425781zm0 0"/><path d="m139.546875 266.570312c-.835937 3.230469-1.277344 6.617188-1.277344 10.101563v25.304687c0 8.28125 6.714844 15 14.996094 15h178.640625c8.28125 0 15-6.71875 15-15v-25.304687c0-3.484375-.445312-6.871094-1.28125-10.101563zm0 0"/></svg>