<?xml version="1.0" encoding="utf-8"?>
<!-- Generator: Adobe Illustrator 25.2.3, SVG Export Plug-In . SVG Version: 6.00 Build 0)  -->
<svg version="1.1" id="Capa_1" xmlns="http://www.w3.org/2000/svg" xmlns:xlink="http://www.w3.org/1999/xlink" x="0px" y="0px"
	 viewBox="0 0 512 512" style="enable-background:new 0 0 512 512;" xml:space="preserve">
<g>
	<g>
		<path d="M262,22.1C130,22.1,23.1,129,23.1,261S130,499.9,262,499.9S500.9,393,500.9,261C500.8,129.1,393.9,22.2,262,22.1z
			 M362.6,268.6c-1.7,3.3-4.3,6-7.7,7.7v0.1l-136.5,68.3c-8.4,4.2-18.7,0.8-22.9-7.6c-1.2-2.4-1.8-5-1.8-7.7V192.7
			c0-9.4,7.6-17.1,17.1-17.1c2.7,0,5.3,0.6,7.6,1.8L355,245.7C363.4,249.9,366.8,260.2,362.6,268.6z"/>
	</g>
</g>
</svg>
